<svg id="Layer_1" data-name="Layer 1" xmlns="http://www.w3.org/2000/svg" viewBox="0 0 383.19 383.32"><defs><style>.cls-1{fill:#ea3b28;}</style></defs><path class="cls-1" d="M180.4,0h15.72c7.52,3.08,12.27,8,12.23,16.78-.1,26.19,0,52.37,0,78.56,0,6.27-2.79,8.76-9,8.68-5.6-.07-11.27-.4-16.81.25-49.64,5.83-83.76,50.19-77.08,100,6.74,50.2,57.12,84.8,106.42,73.09,47.69-11.33,76.56-57.43,66.26-105.46-6.06-28.26,1.5-52.22,24.45-70.24,9.27-7.29,19.59-13.28,29.68-19.46,7.4-4.53,16.26-2,21.15,5.59a186.07,186.07,0,0,1,26.88,66.81c1.61,8.53,2.51,17.2,3.73,25.81v23.2c-.22,1-.5,1.89-.65,2.85-1.55,10-2.4,20.08-4.73,29.86-26.24,110.44-143.39,174-250.23,135.92C33.3,338.36-19,237.75,7.8,140.12,27.16,69.49,87.24,15.06,159.35,2.9,166.33,1.73,173.38,1,180.4,0Z" transform="translate(-0.81)"/><path class="cls-1" d="M224.58,127.94v-4.75q0-47.91,0-95.81a34.64,34.64,0,0,1,.58-7.06c2.22-10.41,10.92-15.64,21.08-12.63a191.05,191.05,0,0,1,71,38.69C324.55,52.6,325.5,62,319.75,69s-15.43,7.55-22.69,1.41a167.17,167.17,0,0,0-36.6-23.74c-1.31-.62-2.66-1.16-4.41-1.92v4.92c0,47.29.09,94.57,0,141.85-.08,30.77-21,56.17-51.1,62.49-33.55,7.05-67.53-15.06-74.69-48.59-7.38-34.59,14.16-68.77,48.19-75.8,7-1.45,14.35-1.39,21.56-1.62C208,127.74,216.11,127.94,224.58,127.94Zm-.81,32.18c-12.16,0-24.42-.87-36.51.21-15.61,1.4-27.53,16.51-26.85,32.17.73,16.94,13.35,29.79,30.47,31,15.26,1.11,31-10.5,32.63-25.84C224.81,185.28,223.77,172.64,223.77,160.12Z" transform="translate(-0.81)"/></svg>